<svg xmlns="http://www.w3.org/2000/svg" xmlns:xlink="http://www.w3.org/1999/xlink" version="1.1" id="Your_Icon" x="0px" y="0px" width="100px" height="100px" viewBox="0 0 100 100" enable-background="new 0 0 100 100" xml:space="preserve">
<g>
	<g>
		<path d="M35.398,58.714v14.698c0,1.571-1.272,2.843-2.843,2.843c-1.571,0-2.843-1.272-2.843-2.843v-7.847L9.854,85.43    c-0.554,0.554-1.286,0.832-2.011,0.832c-0.725,0-1.457-0.277-2.011-0.832c-1.109-1.109-1.109-2.914,0-4.023l19.865-19.858H17.85    c-1.571,0-2.843-1.272-2.843-2.843c0-1.564,1.272-2.843,2.843-2.843h14.698c0.277,0,0.547,0.043,0.81,0.121    c0.092,0.021,0.178,0.05,0.263,0.085c0.085,0.035,0.171,0.071,0.249,0.121c0.007,0,0.007,0.007,0.007,0.007    c0.064,0.028,0.121,0.064,0.178,0.1c0.021,0.007,0.043,0.021,0.057,0.035c0.014,0.014,0.028,0.021,0.035,0.028    c0.057,0.036,0.114,0.078,0.163,0.114c0.028,0.021,0.057,0.043,0.085,0.071c0.057,0.05,0.114,0.107,0.163,0.156    c0.078,0.064,0.135,0.128,0.192,0.199c0,0.007,0,0.014,0.007,0.014l0.171,0.235c0.05,0.078,0.1,0.156,0.142,0.242    c0.05,0.092,0.092,0.185,0.135,0.284c0.028,0.071,0.05,0.149,0.071,0.227C35.355,58.166,35.398,58.436,35.398,58.714z"/>
	</g>
</g>
<g>
	<circle cx="26.416" cy="24.992" r="2.665"/>
</g>
<g>
	<circle cx="33.642" cy="24.992" r="2.665"/>
</g>
<g>
	<circle cx="40.809" cy="24.992" r="2.665"/>
</g>
<g>
	<path d="M92.157,13.738H18.006c-1.571,0-2.843,1.272-2.843,2.843v30.149c0,1.571,1.272,2.843,2.843,2.843   c1.571,0,2.843-1.272,2.843-2.843V36.006h68.465v34.591H44.716c-1.571,0-2.843,1.272-2.843,2.843c0,1.571,1.272,2.843,2.843,2.843   h47.441c1.571,0,2.843-1.272,2.843-2.843V16.581C95,15.011,93.728,13.738,92.157,13.738z M89.314,30.32H20.849V19.424h68.465V30.32   z"/>
</g>
</svg>