<svg xmlns="http://www.w3.org/2000/svg" xmlns:xlink="http://www.w3.org/1999/xlink" version="1.1" id="Your_Icon" x="0px" y="0px" width="100px" height="100px" viewBox="0 0 100 100" enable-background="new 0 0 100 100" xml:space="preserve">
<g>
	<path d="M78.088,94.817H9.491c-2.331,0-4.221-1.89-4.221-4.221V21.998c0-2.331,1.89-4.221,4.221-4.221H43.79   c2.331,0,4.221,1.89,4.221,4.221s-1.89,4.221-4.221,4.221H13.712v60.154h60.154V56.297c0-2.331,1.89-4.221,4.221-4.221   c2.331,0,4.221,1.89,4.221,4.221v34.299C82.309,92.926,80.419,94.817,78.088,94.817z"/>
</g>
<g>
	<g>
		<path d="M95.27,9.042v21.835c0,2.322-1.9,4.221-4.221,4.221c-2.332,0-4.221-1.9-4.221-4.221V19.226L57.341,48.722    c-0.823,0.823-1.91,1.235-2.987,1.235c-1.087,0-2.163-0.412-2.987-1.235c-1.646-1.657-1.646-4.327,0-5.973l29.486-29.486h-11.64    c-2.332,0-4.221-1.889-4.221-4.221s1.889-4.221,4.221-4.221h21.824c0.443,0,0.876,0.063,1.298,0.201    c0.116,0.042,0.232,0.084,0.348,0.137c0.106,0.042,0.211,0.084,0.317,0.148c0.127,0.063,0.243,0.127,0.359,0.211    c0.116,0.074,0.232,0.158,0.348,0.253c0.106,0.084,0.211,0.179,0.317,0.285c0.095,0.095,0.19,0.201,0.285,0.306    c0.285,0.359,0.517,0.749,0.675,1.171c0.042,0.106,0.084,0.211,0.106,0.306C95.206,8.24,95.27,8.641,95.27,9.042z"/>
	</g>
</g>
</svg>