<svg xmlns="http://www.w3.org/2000/svg" xmlns:xlink="http://www.w3.org/1999/xlink" version="1.1" id="Layer_1" x="0px" y="0px" viewBox="0 0 100 100" enable-background="new 0 0 100 100" xml:space="preserve" height="100px" width="100px">
<path d="M71.371,50.934L60.475,37.228c-0.525-0.66-1.527-0.663-2.056-0.007l-11.04,13.706c-0.694,0.861-0.081,2.142,1.025,2.142  h3.906c0.729,0,1.335,0.593,1.332,1.322v5.719c-0.002,0.566-0.501,1.024-1.067,1.024H28.27c-9.15,0-16.358-8.474-14.189-17.986  c0.942-4.132,3.731-7.693,7.526-9.579c3.588-1.783,7.507-2.047,11.112-0.893l3.556,1.138l3.556,1.139l1.661-3.344l1.412-2.842  c3.057-6.153,8.559-10.862,15.228-12.51c14.269-3.527,27.597,7.404,28.157,21.16C86.78,49.5,77.793,59.607,66.171,60.955  c-0.602,0.07-1.082-0.422-1.079-1.028V54.38c0.003-0.725,0.573-1.311,1.297-1.311h3.951C71.442,53.069,72.056,51.796,71.371,50.934z   M94.906,35.9C93.753,20.729,81.571,8.374,66.416,7.024c-13.563-1.209-25.503,6.213-31.047,17.373  c-3.268-1.046-6.842-1.407-10.568-0.855C14.355,25.09,6.139,33.707,5.114,44.218C3.759,58.119,14.647,69.825,28.27,69.825h19.215  c0.509,0,0.921-0.412,0.921-0.921V66.4c0-0.509-0.412-0.921-0.921-0.921l-18.809,0c-9.453,0-17.78-6.771-19.128-16.128  c-1.681-11.671,7.369-21.72,18.722-21.72c1.956,0,3.899,0.304,5.774,0.905l3.556,1.139l1.661-3.344  c5.1-10.267,15.891-16.244,27.502-14.903c12.054,1.392,22.475,11.956,23.738,24.024c1.701,16.252-11.054,30.027-26.967,30.027  h-9.893v9.977c0,0.723-0.559,1.309-1.282,1.309h-3.964c-1.102,0-1.716,1.273-1.03,2.136l10.896,13.706  c0.525,0.66,1.526,0.663,2.056,0.007l11.04-13.706c0.694-0.861,0.081-2.142-1.025-2.142h-3.906c-0.729,0-1.338-0.593-1.335-1.322  v-5.7C82.525,68.866,96.27,53.845,94.906,35.9z"/>
</svg>