<svg xmlns="http://www.w3.org/2000/svg" xmlns:xlink="http://www.w3.org/1999/xlink" version="1.1" id="Your_Icon" x="0px" y="0px" width="100px" height="100px" viewBox="0 0 100 100" enable-background="new 0 0 100 100" xml:space="preserve">
<g>
	<g>
		<path d="M91.558,41.572c-1.888,0-3.433,1.533-3.433,3.433v23.31H31.676V11.866h24.156c1.9,0,3.433-1.533,3.433-3.433    c0-1.9-1.533-3.433-3.433-3.433H28.243c-1.9,0-3.433,1.533-3.433,3.433v16.375H8.435c-1.9,0-3.433,1.545-3.433,3.433v63.326    C5.002,93.455,6.535,95,8.435,95H71.75c1.9,0,3.433-1.545,3.433-3.433V75.181h16.375c1.899,0,3.433-1.533,3.433-3.433V45.005    C94.991,43.106,93.457,41.572,91.558,41.572z M68.317,88.134H11.868v-56.46H24.81v40.074c0,1.9,1.533,3.433,3.433,3.433h40.074    V88.134z"/>
	</g>
	<g>
		<g>
			<path d="M94.991,8.433v20.151c0,1.888-1.534,3.433-3.433,3.433c-1.888,0-3.433-1.545-3.433-3.433V16.718L60.123,44.73     c-0.675,0.664-1.556,1.007-2.426,1.007c-0.881,0-1.762-0.343-2.426-1.007c-1.35-1.339-1.35-3.513,0-4.863l28.001-28.001H71.418     c-1.9,0-3.433-1.533-3.433-3.433c0-1.9,1.533-3.433,3.433-3.433h20.14c0.217,0,0.435,0.023,0.652,0.057     c0.217,0.046,0.435,0.114,0.641,0.195c0.103,0.046,0.206,0.092,0.298,0.137c0.308,0.16,0.583,0.366,0.835,0.618     c0.503,0.503,0.824,1.121,0.949,1.774c0.023,0.114,0.035,0.229,0.046,0.343c0.012,0.011,0.012,0.011,0,0.023     C94.991,8.25,94.991,8.341,94.991,8.433z"/>
		</g>
		<g>
			<path d="M94.991,8.433v0.332c0.011-0.206,0.011-0.412-0.012-0.618C94.991,8.25,94.991,8.341,94.991,8.433z"/>
		</g>
	</g>
</g>
</svg>