<?xml version="1.0" encoding="utf-8"?>
<!-- Generator: Adobe Illustrator 18.0.0, SVG Export Plug-In . SVG Version: 6.00 Build 0)  -->
<!DOCTYPE svg PUBLIC "-//W3C//DTD SVG 1.1//EN" "http://www.w3.org/Graphics/SVG/1.1/DTD/svg11.dtd">
<svg version="1.1" id="Layer_1" xmlns="http://www.w3.org/2000/svg" xmlns:xlink="http://www.w3.org/1999/xlink" x="0px" y="0px"
	 viewBox="0 0 997.6 999.9" enable-background="new 0 0 997.6 999.9" xml:space="preserve">
<path fill="#CD0000" d="M489.2,1c6.3,0,12.7,0,19,0c1.3,0.2,2.6,0.6,3.9,0.7c28.2,0.6,56.1,3.6,83.8,9.2
	c113.4,23,207.9,78.5,282.9,166.3c65.6,76.8,103.9,165.8,115.5,266.2c5.6,48.5,4.3,96.8-4.5,144.8c-20,108.8-69.6,202.1-151.4,276.7
	C714.2,978,567.9,1019.2,403,989.2c-103.1-18.7-191-68-263.5-143.7c-79.5-82.9-125-182-136.8-296.2c-5.2-50-2.6-99.8,7.6-149.1
	c20.3-98.6,66.5-183.4,137.6-254.5c39.6-39.5,84.8-71.3,135.3-95.5C339.2,23.4,398.3,7.5,460.4,3C470,2.3,479.6,1.7,489.2,1z
	 M373,476.3c1.6,1.4,3.8,3.3,5.9,5.4c5.6,5.5,11.1,11,16.6,16.6c7.1,7.2,14.2,14.5,21.4,21.7c7.1,7,14.4,13.8,21.4,20.9
	c9.4,9.4,18.5,18.9,27.8,28.3c7.5,7.6,14.9,15.1,22.4,22.6c6.8,6.8,13.7,13.6,20.5,20.3c6,6,11.9,12.1,18,18
	c5.8,5.6,11.3,11.5,17.7,16.2c10.7,8,21.7,15.5,33,22.5c7.1,4.4,14.7,8.1,22.5,11c10,3.7,20.2,6.8,30.6,9c9.9,2.1,20.2,3,30.3,4.1
	c5.2,0.6,10.5,1.1,15.8,0.9c6.6-0.2,13.1-1,19.6-1.9c6.8-0.9,13.7-1.7,20.4-3.4c8.2-2.1,16.2-5.1,24.4-7.5
	c16.3-4.8,30.9-12.8,44.7-22.4c7.2-5,14.4-10.4,20.6-16.6c10.3-10.2,20.6-20.5,29.4-31.9c7.2-9.3,12.8-20.1,18-30.7
	c4.6-9.2,8.5-18.9,11.2-28.8c3-11.2,5.8-22.5,6.6-34.4c0.8-12.5,1.8-24.9,0.8-37.5c-1.3-16.5-3.6-32.6-9.3-48.1
	c-3.9-10.7-8.1-21.5-13.4-31.6c-4.9-9.3-11.2-17.9-17.5-26.4c-5.8-7.8-12-15.5-19-22.2c-8.3-7.9-17.4-15.3-26.8-21.9
	c-8.9-6.3-18.4-12.1-28.3-16.7c-10.3-4.7-21.3-8.5-32.4-11.1c-14.5-3.3-29.3-6-44.1-7c-20.4-1.4-40.9,0.7-60.6,6.8
	c-11.7,3.7-23.5,7.3-34.5,12.5c-10.3,4.8-20,11.2-29.4,17.8c-8.7,6.1-16.7,13.2-24.8,20.2c-2.8,2.4-5,5.5-6.8,7.6
	c14.8,15,29.2,29.6,43.9,44.5c2-2,3.9-4.4,6.2-6.2c9.6-7.7,18.8-16.1,29.2-22.5c12-7.3,25.2-12.4,39.2-15.3
	c15.7-3.3,31.4-4.9,47.1-2.2c14.1,2.4,28,5.8,41.1,12.4c11.7,5.8,22.8,12.4,32.2,21.1c17.9,16.5,31.5,35.8,39,59.5
	c6.5,20.8,9.4,41.6,5.5,63.1c-1.8,10.1-3.6,20.5-7.5,30c-4.5,10.9-9.7,21.7-17.3,31.2c-9.8,12.3-20.4,23.6-33.6,32.4
	c-10.5,7-21.5,12.7-33.6,16.6c-12.3,4-24.7,7-37.5,7c-11.3,0-22.7-1.3-33.9-2.9c-15.9-2.4-30.5-8.8-44.1-17.2
	c-12.4-7.6-22.9-17.6-33-27.9c-15.3-15.6-30.9-31-46.3-46.5c-21.5-21.6-42.9-43.2-64.4-64.7c-7.8-7.8-15.8-15.4-23.6-23.3
	c-5.5-5.6-10.6-11.6-16.6-18.3C402,446,387.9,460.8,373,476.3z M583.4,544.2c1.6-1.8,4.1-4.8,6.8-7.6c6.5-6.8,12.9-13.6,19.6-20.2
	c4.2-4.2,9-7.8,13.2-11.9c2.1-2.1,3.2-4.6,0.4-7.3c-3.6-3.5-7.1-7.1-10.7-10.6c-7.2-7-14.6-13.8-21.6-20.9
	c-9-9.1-17.5-18.5-26.5-27.6c-8-8.1-16.4-15.8-24.5-23.9c-11.6-11.5-22.9-23.3-34.5-34.7c-10.6-10.4-21.6-20.3-32.1-30.9
	c-8.8-8.9-18.8-16.3-29.2-23.2c-19.1-12.6-39.9-21.3-62-26.4c-22.3-5.1-45-7-67.8-4c-19.9,2.6-39.2,7.2-57.8,15.4
	c-21.5,9.4-40.7,22.2-57.7,38.1c-10.9,10.3-21,21.4-28.6,34.5c-6,10.2-12.9,20.1-17.3,31c-5.5,13.9-9.2,28.6-13.1,43.2
	c-4,15-3.9,30.6-2.8,45.9c1,14.7,3,29.6,6.6,43.8c3.9,15.3,10.3,29.9,18.1,43.8c7.5,13.4,16.1,26,26.6,37.1
	c8.7,9.1,18.6,17.2,28.3,25.4c11.7,10,25.3,16.9,39.2,23.2c14.7,6.6,30,11.1,45.9,14c6.3,1.1,12.7,1.9,19.1,2.5
	c6.2,0.6,12.5,1.1,18.8,0.9c5.6-0.1,11.1-1.5,16.6-1.8c13.8-0.6,27.1-3.5,40-7.9c10.8-3.7,21.4-8.2,31.6-13.3
	c9.4-4.7,18.3-10.6,27.1-16.5c5.2-3.5,9.8-8,14.5-12.2c5.5-4.8,10.8-9.8,15.9-14.4c-0.5-1.3-0.6-1.7-0.8-1.9
	c-13.7-14-27.5-27.9-41.4-41.7c-0.7-0.7-3.4-0.2-4.4,0.7c-2.8,2.4-5,5.6-7.9,8c-7.3,6-14.5,12.3-22.4,17.4
	c-6.9,4.5-14.5,8.4-22.2,11.3c-11.7,4.3-23.8,8-36.5,8.2c-11.3,0.2-22.7,0.4-33.9-0.9c-8.8-1-17.7-3.6-26.1-6.6
	c-8.6-3.2-17.2-7.1-25-11.9c-7.7-4.8-14.3-11.2-21.6-16.6c-9.7-7.3-16.3-17.3-22.7-27.2c-4.9-7.6-8.9-16.1-12.1-24.5
	c-3.2-8.2-5.7-16.8-7.1-25.5c-2-12.2-3.5-24.6-1.1-37c2.1-10.9,3.7-22.1,7.3-32.5c2.9-8.7,8.5-16.5,12.6-24.8
	c7.3-14.9,19-26.3,31.4-36.5c11.5-9.5,24.8-16.5,39.1-21.4c14.3-4.8,28.9-8.1,44-8.1c9.5,0,19,1.3,28.4,2.9
	c19.4,3.3,37.1,11,53,22.5c7.7,5.6,14.8,12.2,21.7,18.8c5.7,5.3,10.8,11.3,16.3,16.9c5.3,5.4,10.6,10.6,16,15.9
	c9,8.8,18,17.5,26.9,26.3c8.8,8.8,17.2,17.8,26,26.6c8.8,8.8,17.7,17.3,26.6,25.9C560.5,522.5,571.6,532.9,583.4,544.2z"/>
<path fill="#FFFFFF" d="M373,476.3c14.9-15.6,29-30.3,44.6-46.6c6,6.7,11.1,12.7,16.6,18.3c7.7,7.9,15.8,15.5,23.6,23.3
	c21.5,21.6,42.9,43.2,64.4,64.7c15.4,15.5,31,30.9,46.3,46.5c10.1,10.4,20.6,20.3,33,27.9c13.7,8.3,28.2,14.8,44.1,17.2
	c11.2,1.7,22.6,3,33.9,2.9c12.8,0,25.2-3,37.5-7c12.1-3.9,23.1-9.6,33.6-16.6c13.1-8.8,23.8-20.1,33.6-32.4
	c7.6-9.5,12.8-20.3,17.3-31.2c3.9-9.4,5.6-19.8,7.5-30c3.9-21.5,1-42.3-5.5-63.1c-7.4-23.7-21.1-43.1-39-59.5
	c-9.5-8.7-20.6-15.2-32.2-21.1c-13.1-6.6-27-10-41.1-12.4c-15.7-2.7-31.4-1.1-47.1,2.2c-14,2.9-27.2,8-39.2,15.3
	c-10.4,6.4-19.6,14.8-29.2,22.5c-2.3,1.8-4.2,4.2-6.2,6.2c-14.7-14.9-29.1-29.5-43.9-44.5c1.8-2.1,4-5.2,6.8-7.6
	c8.1-6.9,16.1-14.1,24.8-20.2c9.4-6.6,19.1-13,29.4-17.8c11-5.2,22.8-8.8,34.5-12.5c19.7-6.2,40.1-8.2,60.6-6.8
	c14.8,1,29.6,3.7,44.1,7c11.1,2.5,22,6.3,32.4,11.1c9.9,4.5,19.3,10.4,28.3,16.7c9.4,6.6,18.4,14,26.8,21.9c7,6.7,13.2,14.4,19,22.2
	c6.3,8.4,12.6,17.1,17.5,26.4c5.3,10.1,9.5,20.8,13.4,31.6c5.7,15.5,8,31.7,9.3,48.1c1,12.6,0,24.9-0.8,37.5
	c-0.8,11.9-3.6,23.2-6.6,34.4c-2.7,9.9-6.6,19.6-11.2,28.8c-5.3,10.6-10.8,21.4-18,30.7c-8.8,11.4-19.1,21.7-29.4,31.9
	c-6.2,6.2-13.4,11.6-20.6,16.6c-13.8,9.6-28.4,17.6-44.7,22.4c-8.2,2.4-16.1,5.4-24.4,7.5c-6.7,1.7-13.6,2.5-20.4,3.4
	c-6.5,0.9-13.1,1.7-19.6,1.9c-5.3,0.2-10.6-0.3-15.8-0.9c-10.1-1.2-20.4-2-30.3-4.1c-10.4-2.2-20.6-5.4-30.6-9
	c-7.8-2.9-15.4-6.6-22.5-11c-11.3-7-22.3-14.5-33-22.5c-6.4-4.8-11.9-10.7-17.7-16.2c-6.1-5.9-12-12-18-18
	c-6.8-6.8-13.7-13.5-20.5-20.3c-7.5-7.5-15-15.1-22.4-22.6c-9.3-9.4-18.5-18.9-27.8-28.3c-7-7.1-14.3-13.9-21.4-20.9
	c-7.2-7.2-14.2-14.5-21.4-21.7c-5.5-5.6-11-11.1-16.6-16.6C376.8,479.7,374.5,477.8,373,476.3z"/>
<path fill="#FFFFFF" d="M583.4,544.2c-11.8-11.3-22.9-21.7-33.8-32.2c-8.9-8.6-17.9-17.2-26.6-25.9c-8.8-8.8-17.2-17.8-26-26.6
	c-8.9-8.9-18-17.5-26.9-26.3c-5.4-5.3-10.7-10.5-16-15.9c-5.5-5.6-10.6-11.5-16.3-16.9c-7-6.5-14-13.2-21.7-18.8
	c-15.9-11.5-33.6-19.2-53-22.5c-9.4-1.6-18.9-2.9-28.4-2.9c-15.1-0.1-29.7,3.2-44,8.1c-14.3,4.8-27.6,11.9-39.1,21.4
	c-12.4,10.2-24.1,21.6-31.4,36.5c-4.1,8.3-9.7,16.1-12.6,24.8c-3.5,10.5-5.1,21.6-7.3,32.5c-2.4,12.4-0.9,24.8,1.1,37
	c1.4,8.7,3.9,17.3,7.1,25.5c3.3,8.5,7.2,16.9,12.1,24.5c6.4,9.9,12.9,19.9,22.7,27.2c7.3,5.5,13.9,11.9,21.6,16.6
	c7.8,4.8,16.3,8.8,25,11.9c8.4,3.1,17.2,5.6,26.1,6.6c11.2,1.3,22.6,1.1,33.9,0.9c12.7-0.2,24.8-3.8,36.5-8.2
	c7.7-2.9,15.3-6.8,22.2-11.3c7.9-5.2,15.1-11.4,22.4-17.4c2.9-2.4,5.1-5.6,7.9-8c1-0.9,3.8-1.4,4.4-0.7
	c13.9,13.8,27.6,27.8,41.4,41.7c0.2,0.2,0.2,0.6,0.8,1.9c-5.1,4.6-10.5,9.6-15.9,14.4c-4.7,4.2-9.3,8.7-14.5,12.2
	c-8.8,5.9-17.7,11.7-27.1,16.5c-10.2,5.1-20.8,9.6-31.6,13.3c-12.9,4.4-26.3,7.2-40,7.9c-5.6,0.3-11.1,1.6-16.6,1.8
	c-6.3,0.1-12.6-0.3-18.8-0.9c-6.4-0.6-12.8-1.4-19.1-2.5c-15.8-2.8-31.2-7.3-45.9-14c-13.9-6.3-27.5-13.2-39.2-23.2
	c-9.6-8.2-19.6-16.3-28.3-25.4c-10.5-11-19.1-23.7-26.6-37.1c-7.8-13.9-14.2-28.5-18.1-43.8c-3.6-14.3-5.5-29.1-6.6-43.8
	c-1.1-15.3-1.1-30.9,2.8-45.9c3.8-14.5,7.5-29.2,13.1-43.2c4.3-10.9,11.3-20.8,17.3-31c7.6-13.1,17.7-24.2,28.6-34.5
	c17-16,36.2-28.7,57.7-38.1c18.6-8.1,37.9-12.8,57.8-15.4c22.8-3,45.6-1.1,67.8,4c22.1,5.1,42.9,13.8,62,26.4
	c10.4,6.9,20.3,14.3,29.2,23.2c10.4,10.5,21.5,20.5,32.1,30.9c11.6,11.4,22.9,23.2,34.5,34.7c8.1,8,16.5,15.8,24.5,23.9
	c9,9.1,17.5,18.5,26.5,27.6c7,7.1,14.4,13.9,21.6,20.9c3.6,3.5,7.1,7.1,10.7,10.6c2.8,2.7,1.7,5.3-0.4,7.3c-4.3,4.1-9,7.7-13.2,11.9
	c-6.7,6.6-13.2,13.4-19.6,20.2C587.5,539.3,585,542.3,583.4,544.2z"/>
</svg>
