<svg xmlns="http://www.w3.org/2000/svg" xmlns:xlink="http://www.w3.org/1999/xlink" version="1.1" id="Layer_1" x="0px" y="0px" width="100px" height="100px" viewBox="0 0 100 100" enable-background="new 0 0 100 100" xml:space="preserve">
<g>
	<rect x="20.866" y="40.411" fill="none" width="8.692" height="1.224"/>
	<rect x="25.213" y="48.652" fill="none" width="19.84" height="1.225"/>
	<rect x="20.866" y="38.352" fill="none" width="8.692" height="1.224"/>
	<rect x="20.866" y="36.291" fill="none" width="11.593" height="1.224"/>
	<rect x="25.213" y="46.637" fill="none" width="12.665" height="1.223"/>
	<rect x="20.866" y="50.714" fill="none" width="3.488" height="1.224"/>
	<rect x="20.866" y="42.473" fill="none" width="3.488" height="1.223"/>
	<rect x="20.866" y="48.652" fill="none" width="3.488" height="1.225"/>
	<rect x="20.866" y="32.17" fill="none" width="3.488" height="1.224"/>
	<rect x="20.866" y="44.532" fill="none" width="5.831" height="1.224"/>
	<rect x="20.866" y="46.637" fill="none" width="3.488" height="1.225"/>
	<rect x="25.213" y="50.714" fill="none" width="27.762" height="1.224"/>
	<rect x="53.813" y="50.714" fill="none" width="3.487" height="1.224"/>
	<rect x="20.866" y="61.014" fill="none" width="7.133" height="1.225"/>
	<path fill="none" d="M59.85,66.277h24.184h0.001V29.708H59.85h-0.175v36.569H59.85z M82.158,64.209L82.158,64.209h-9.643v-12.26   h9.642h0.001V64.209z M82.158,38.016v12.26h-9.643v-0.001V38.016v-0.001L82.158,38.016L82.158,38.016z M61.2,32.216h20.957v4.121   H61.2V32.216z M61.2,38.016h9.642v12.26H61.2V38.016z M61.2,51.949h9.642v12.26H61.2V51.949z"/>
	<rect x="20.866" y="58.955" fill="none" width="14.267" height="1.223"/>
	<rect x="20.866" y="52.773" fill="none" width="27.791" height="1.224"/>
	<rect x="20.866" y="56.895" fill="none" width="17.012" height="1.224"/>
	<rect x="20.866" y="34.23" fill="none" width="8.692" height="1.224"/>
	<rect x="25.213" y="54.834" fill="none" width="23.444" height="1.225"/>
	<rect x="20.866" y="54.834" fill="none" width="3.488" height="1.225"/>
	<rect x="20.866" y="63.076" fill="none" width="5.831" height="1.224"/>
	<rect x="18.971" y="32.17" fill="none" width="1.058" height="1.224"/>
	<rect x="18.971" y="40.411" fill="none" width="1.058" height="1.224"/>
	<rect x="18.971" y="63.076" fill="none" width="1.058" height="1.224"/>
	<rect x="18.971" y="36.291" fill="none" width="1.058" height="1.224"/>
	<rect x="18.971" y="38.351" fill="none" width="1.058" height="1.224"/>
	<rect x="18.971" y="34.23" fill="none" width="1.058" height="1.224"/>
	<rect x="18.971" y="58.955" fill="none" width="1.058" height="1.223"/>
	<circle fill="none" cx="50.001" cy="28.147" r="0.68"/>
	<path fill="none" d="M54.305,70.684h-8.607c-0.376,0-0.68,0.307-0.681,0.682v-0.002c0-0.375,0.305-0.68,0.681-0.68h-0.001   c-0.376,0-0.681,0.305-0.681,0.68v0.002c0,0.375,0.305,0.679,0.681,0.679h8.608c0.375,0,0.68-0.304,0.68-0.679   C54.984,70.991,54.68,70.684,54.305,70.684z"/>
	<rect x="18.971" y="52.773" fill="none" width="1.058" height="1.224"/>
	<rect x="18.971" y="50.714" fill="none" width="1.058" height="1.224"/>
	<rect x="18.971" y="42.471" fill="none" width="1.058" height="1.225"/>
	<rect x="18.971" y="56.895" fill="none" width="1.058" height="1.224"/>
	<rect x="18.971" y="61.014" fill="none" width="1.058" height="1.225"/>
	<rect x="18.971" y="54.834" fill="none" width="1.058" height="1.225"/>
	<rect x="18.971" y="48.652" fill="none" width="1.058" height="1.225"/>
	<rect x="18.971" y="46.592" fill="none" width="1.058" height="1.225"/>
	<rect x="18.971" y="44.532" fill="none" width="1.058" height="1.224"/>
	<polygon points="72.516,38.016 82.157,38.016 82.158,38.016 82.158,38.015 72.516,38.015  "/>
	<path d="M45.017,71.363v0.002c0.001-0.375,0.305-0.682,0.681-0.682C45.322,70.684,45.017,70.988,45.017,71.363z"/>
	<path d="M54.305,70.684c0.375,0,0.68,0.308,0.68,0.682v-0.002C54.984,70.988,54.68,70.684,54.305,70.684z"/>
	<path d="M86.629,69.109c0.109-0.227,0.178-0.479,0.178-0.748V28.107c0-0.953-0.771-1.726-1.727-1.726H14.92   c-0.952,0-1.726,0.772-1.726,1.726v40.254c0,0.27,0.067,0.521,0.177,0.748H5v2.783c0,0.953,0.772,1.726,1.726,1.726h86.549   c0.953,0,1.726-0.772,1.726-1.726v-2.783H86.629z M59.85,29.708h24.185v36.569h-0.001H59.85h-0.175V29.708H59.85z M57.3,50.714   v1.224h-3.487v-1.224H57.3z M20.866,62.238v-1.225h7.133v1.225H20.866z M26.697,63.076V64.3h-5.831v-1.224H26.697z M20.866,60.178   v-1.223h14.267v1.223H20.866z M20.866,58.118v-1.224h17.012v1.224H20.866z M20.866,56.059v-1.225h3.488v1.225H20.866z    M25.213,56.059v-1.225h23.444v1.225H25.213z M20.866,53.997v-1.224h27.791v1.224H20.866z M29.559,34.23v1.224h-8.692V34.23H29.559   z M20.866,33.394V32.17h3.488v1.224H20.866z M32.459,36.291v1.224H20.866v-1.224H32.459z M37.878,47.859H25.213v-1.223h12.665   V47.859z M45.053,48.652v1.225h-19.84v-1.225H45.053z M29.559,38.352v1.224h-8.692v-1.224H29.559z M29.559,40.411v1.224h-8.692   v-1.224H29.559z M24.354,42.473v1.223h-3.488v-1.223H24.354z M26.697,44.532v1.224h-5.831v-1.224H26.697z M24.354,46.637v1.225   h-3.488v-1.225H24.354z M24.354,48.652v1.225h-3.488v-1.225H24.354z M24.354,50.714v1.224h-3.488v-1.224H24.354z M25.213,51.938   v-1.224h27.762v1.224H25.213z M18.971,60.178v-1.223h1.058v1.223H18.971z M20.029,61.014v1.225h-1.058v-1.225H20.029z    M18.971,58.118v-1.224h1.058v1.224H18.971z M18.971,56.059v-1.225h1.058v1.225H18.971z M18.971,53.997v-1.224h1.058v1.224H18.971z    M18.971,51.938v-1.224h1.058v1.224H18.971z M18.971,49.877v-1.225h1.058v1.225H18.971z M18.971,47.816v-1.225h1.058v1.225H18.971z    M18.971,45.756v-1.224h1.058v1.224H18.971z M18.971,43.695v-1.225h1.058v1.225H18.971z M18.971,41.635v-1.224h1.058v1.224H18.971z    M18.971,39.575v-1.224h1.058v1.224H18.971z M18.971,37.515v-1.224h1.058v1.224H18.971z M18.971,35.454V34.23h1.058v1.224H18.971z    M18.971,33.394V32.17h1.058v1.224H18.971z M18.971,63.076h1.058V64.3h-1.058V63.076z M50.001,27.468c0.375,0,0.68,0.305,0.68,0.68   s-0.305,0.68-0.68,0.68s-0.68-0.305-0.68-0.68S49.626,27.468,50.001,27.468z M54.984,71.365c0,0.375-0.305,0.679-0.68,0.679h-8.608   c-0.376,0-0.681-0.304-0.681-0.679v-0.002c0-0.375,0.305-0.68,0.681-0.68h0.001h8.607c0.375,0,0.68,0.305,0.68,0.68V71.365z"/>
	<rect x="61.2" y="32.216" width="20.957" height="4.121"/>
	<rect x="61.2" y="38.016" width="9.642" height="12.26"/>
	<polygon points="72.516,38.016 72.516,50.275 72.516,50.276 82.158,50.276 82.158,38.016 82.157,38.016  "/>
	<rect x="61.2" y="51.949" width="9.642" height="12.26"/>
	<polygon points="72.516,51.949 72.516,64.209 82.157,64.209 82.158,64.209 82.158,51.949 82.157,51.949  "/>
</g>
</svg>