<svg xmlns="http://www.w3.org/2000/svg" xmlns:xlink="http://www.w3.org/1999/xlink" version="1.1" id="Ebene_1" x="0px" y="0px" width="84.5930232558px" height="100px" viewBox="0 0 582.787 688.162" enable-background="new 0 0 582.787 688.162" xml:space="preserve">
<g>
	<path d="M555.513,413.395L326.284,188.378c-8.407-8.253-20.94-10.671-31.814-6.137c-10.875,4.535-17.977,15.138-18.031,26.92   l-1.448,314.647c-0.054,11.813,6.988,22.505,17.864,27.119c3.693,1.565,7.583,2.327,11.44,2.327c7.505,0,14.89-2.881,20.476-8.33   l61.118-59.62l67.756,163.921c4.671,11.299,15.59,18.123,27.101,18.123c3.73,0,7.523-0.717,11.186-2.23   c14.961-6.186,22.074-23.326,15.892-38.286l-67.158-162.474l95.124,0.086c0.011,0,0.018,0,0.027,0c0.012,0,0.025-0.001,0.033,0   c16.19,0,29.312-13.123,29.312-29.312C565.161,426.513,561.438,418.758,555.513,413.395z"/>
	<path d="M400.158,50.25c6.247,0.384,12.329,1.779,18.079,4.147c1.827,0.752,3.718,1.109,5.579,1.109   c5.765,0,11.234-3.423,13.564-9.086c3.083-7.489-0.489-16.06-7.977-19.143c-8.739-3.598-17.975-5.718-27.447-6.3   c-8.072-0.517-15.04,5.653-15.536,13.737C385.924,42.797,392.074,49.753,400.158,50.25z"/>
	<path d="M307.213,50.142h23.462c8.1,0,14.664-6.566,14.664-14.665c0-8.099-6.564-14.664-14.664-14.664h-23.462   c-8.099,0-14.664,6.565-14.664,14.664C292.549,43.576,299.114,50.142,307.213,50.142z"/>
	<path d="M32.29,181.294c8.099,0,14.665-6.565,14.665-14.665v-23.462c0-8.099-6.565-14.665-14.665-14.665   c-8.099,0-14.664,6.565-14.664,14.665v23.462C17.626,174.729,24.191,181.294,32.29,181.294z"/>
	<path d="M468.162,265.941c-8.099,0-14.664,6.565-14.664,14.665v23.462c0,8.099,6.565,14.664,14.664,14.664   c8.1,0,14.664-6.565,14.664-14.664v-23.462C482.826,272.506,476.262,265.941,468.162,265.941z"/>
	<path d="M32.29,275.145c8.099,0,14.665-6.565,14.665-14.665v-23.462c0-8.099-6.565-14.665-14.665-14.665   c-8.099,0-14.664,6.565-14.664,14.665v23.462C17.626,268.58,24.191,275.145,32.29,275.145z"/>
	<path d="M453.498,107.039v9.328c0,8.099,6.565,14.664,14.664,14.664c8.1,0,14.664-6.565,14.664-14.664v-9.328   c0-5.682-0.557-11.368-1.657-16.897c-1.578-7.942-9.292-13.1-17.241-11.524c-7.944,1.58-13.104,9.299-11.524,17.242   C453.129,99.511,453.498,103.272,453.498,107.039z"/>
	<path d="M482.826,186.755c0-8.099-6.564-14.664-14.664-14.664c-8.099,0-14.664,6.565-14.664,14.664v23.462   c0,8.099,6.565,14.664,14.664,14.664c8.1,0,14.664-6.565,14.664-14.664V186.755z"/>
	<path d="M32.29,368.996c8.099,0,14.665-6.565,14.665-14.665v-23.462c0-8.099-6.565-14.664-14.665-14.664   c-8.099,0-14.664,6.565-14.664,14.664v23.462C17.626,362.43,24.191,368.996,32.29,368.996z"/>
	<path d="M227.495,456.684h-23.463c-8.099,0-14.664,6.565-14.664,14.665c0,8.098,6.565,14.664,14.664,14.664h23.463   c8.099,0,14.664-6.566,14.664-14.664C242.159,463.25,235.594,456.684,227.495,456.684z"/>
	<path d="M142.975,20.813h-23.463c-8.099,0-14.665,6.565-14.665,14.664c0,8.099,6.566,14.665,14.665,14.665h23.463   c8.099,0,14.664-6.566,14.664-14.665C157.639,27.378,151.074,20.813,142.975,20.813z"/>
	<path d="M236.825,20.813h-23.463c-8.099,0-14.664,6.565-14.664,14.664c0,8.099,6.565,14.665,14.664,14.665h23.463   c8.099,0,14.665-6.566,14.665-14.665C251.49,27.378,244.924,20.813,236.825,20.813z"/>
	<path d="M44.168,44.806c-6.834,6.556-12.509,14.129-16.864,22.509c-3.735,7.186-0.938,16.039,6.248,19.775   c2.162,1.123,4.472,1.656,6.75,1.656c5.297,0,10.413-2.88,13.024-7.904c2.875-5.532,6.625-10.536,11.144-14.872   c5.845-5.606,6.037-14.889,0.431-20.733C59.295,39.391,50.011,39.198,44.168,44.806z"/>
	<path d="M133.644,456.684h-23.463c-8.099,0-14.664,6.565-14.664,14.665c0,8.098,6.565,14.664,14.664,14.664h23.463   c8.1,0,14.665-6.566,14.665-14.664C148.308,463.25,141.743,456.684,133.644,456.684z"/>
	<path d="M50.352,419.209c-2.762-7.614-11.178-11.536-18.787-8.782c-7.613,2.763-11.545,11.175-8.782,18.787   c3.223,8.881,7.869,17.135,13.808,24.529c2.897,3.608,7.15,5.483,11.443,5.483c3.221,0,6.465-1.057,9.172-3.231   c6.315-5.07,7.323-14.301,2.252-20.614C55.539,430.5,52.475,425.059,50.352,419.209z"/>
</g>
</svg>