<svg xmlns="http://www.w3.org/2000/svg" xmlns:xlink="http://www.w3.org/1999/xlink" version="1.1" id="Capa_1" x="0px" y="0px" width="100.0px" height="100px" viewBox="0 0 256 256" enable-background="new 0 0 256 256" xml:space="preserve">
<g>
	<path fill="#000000" d="M201.893,84.946c3.369,0,6.107,2.732,6.107,6.107c0,3.373-2.738,6.107-6.107,6.107   c-3.379,0-6.107-2.734-6.107-6.107C195.785,87.679,198.514,84.946,201.893,84.946L201.893,84.946z"/>
	<path fill="#000000" d="M183.424,84.946c3.365,0,6.106,2.732,6.106,6.107c0,3.373-2.741,6.107-6.106,6.107   c-3.378,0-6.113-2.734-6.113-6.107C177.311,87.679,180.046,84.946,183.424,84.946L183.424,84.946z"/>
	<path fill="#000000" d="M183.424,103.415c3.365,0,6.106,2.734,6.106,6.115c0,3.371-2.741,6.105-6.106,6.105   c-3.378,0-6.113-2.734-6.113-6.105C177.311,106.149,180.046,103.415,183.424,103.415L183.424,103.415z"/>
	<path fill="#000000" d="M164.941,103.415c3.374,0,6.117,2.734,6.117,6.115c0,3.371-2.743,6.105-6.117,6.105   c-3.367,0-6.107-2.734-6.107-6.105C158.834,106.149,161.574,103.415,164.941,103.415L164.941,103.415z"/>
	<path fill="#000000" d="M164.941,121.892c3.374,0,6.117,2.734,6.117,6.109c0,3.371-2.743,6.105-6.117,6.105   c-3.367,0-6.107-2.734-6.107-6.105C158.834,124.626,161.574,121.892,164.941,121.892L164.941,121.892z"/>
	<path fill="#000000" d="M146.47,121.892c3.378,0,6.11,2.734,6.11,6.109c0,3.371-2.732,6.105-6.11,6.105   c-3.366,0-6.105-2.734-6.105-6.105C140.364,124.626,143.104,121.892,146.47,121.892L146.47,121.892z"/>
	<path fill="#000000" d="M146.47,140.364c3.378,0,6.11,2.734,6.11,6.105c0,3.379-2.732,6.115-6.11,6.115   c-3.366,0-6.105-2.736-6.105-6.115C140.364,143.099,143.104,140.364,146.47,140.364L146.47,140.364z"/>
	<path fill="#000000" d="M128,140.364c3.379,0,6.109,2.734,6.109,6.105c0,3.379-2.73,6.115-6.109,6.115s-6.109-2.736-6.109-6.115   C121.891,143.099,124.621,140.364,128,140.364L128,140.364z"/>
	<path fill="#000000" d="M128,158.837c3.379,0,6.109,2.736,6.109,6.111c0,3.373-2.73,6.105-6.109,6.105s-6.109-2.732-6.109-6.105   C121.891,161.573,124.621,158.837,128,158.837L128,158.837z"/>
	<path fill="#000000" d="M109.53,121.892c3.366,0,6.105,2.734,6.105,6.109c0,3.371-2.739,6.105-6.105,6.105   c-3.378,0-6.11-2.734-6.11-6.105C103.42,124.626,106.152,121.892,109.53,121.892L109.53,121.892z"/>
	<path fill="#000000" d="M109.53,140.364c3.366,0,6.105,2.734,6.105,6.105c0,3.379-2.739,6.115-6.105,6.115   c-3.378,0-6.11-2.736-6.11-6.115C103.42,143.099,106.152,140.364,109.53,140.364L109.53,140.364z"/>
	<path fill="#000000" d="M91.059,103.415c3.367,0,6.109,2.734,6.109,6.115c0,3.371-2.742,6.105-6.109,6.105   c-3.374,0-6.117-2.734-6.117-6.105C84.941,106.149,87.685,103.415,91.059,103.415L91.059,103.415z"/>
	<path fill="#000000" d="M91.059,121.892c3.367,0,6.109,2.734,6.109,6.109c0,3.371-2.742,6.105-6.109,6.105   c-3.374,0-6.117-2.734-6.117-6.105C84.941,124.626,87.685,121.892,91.059,121.892L91.059,121.892z"/>
	<path fill="#000000" d="M72.576,84.946c3.379,0,6.113,2.732,6.113,6.107c0,3.373-2.734,6.107-6.113,6.107   c-3.365,0-6.106-2.734-6.106-6.107C66.47,87.679,69.211,84.946,72.576,84.946L72.576,84.946z"/>
	<path fill="#000000" d="M72.576,103.415c3.379,0,6.113,2.734,6.113,6.115c0,3.371-2.734,6.105-6.113,6.105   c-3.365,0-6.106-2.734-6.106-6.105C66.47,106.149,69.211,103.415,72.576,103.415L72.576,103.415z"/>
	<path fill="#000000" d="M54.108,84.946c3.378,0,6.106,2.732,6.106,6.107c0,3.373-2.729,6.107-6.106,6.107   c-3.38,0-6.108-2.734-6.108-6.107C48,87.679,50.729,84.946,54.108,84.946L54.108,84.946z"/>
</g>
</svg>