<svg xmlns="http://www.w3.org/2000/svg" xmlns:xlink="http://www.w3.org/1999/xlink" version="1.1" x="0px" y="0px" width="100px" height="100px" viewBox="0 0 100 100" enable-background="new 0 0 100 100" xml:space="preserve">
<g id="Captions">
</g>
<g id="Your_Icon">
	<path d="M35.195,67.379c0.391,0.23,0.828,0.346,1.266,0.346c0.42,0,0.839-0.105,1.218-0.316l26.495-14.777   c0.792-0.441,1.283-1.277,1.283-2.184s-0.491-1.742-1.283-2.184L37.679,33.486c-0.774-0.43-1.719-0.42-2.483,0.029   c-0.765,0.447-1.234,1.268-1.234,2.154v8.105H19.513c-1.381,0-2.5,1.119-2.5,2.5v8.344c0,1.381,1.119,2.5,2.5,2.5h14.448v8.105   C33.961,66.111,34.431,66.932,35.195,67.379z"/>
	<path d="M82.986,73.77V26.23c0-5.541-4.508-10.049-10.048-10.049H36.975c-2.209,0-4,1.791-4,4s1.791,4,4,4h35.964   c1.13,0,2.048,0.918,2.048,2.049V73.77c0,1.129-0.918,2.049-2.048,2.049H36.975c-2.209,0-4,1.791-4,4s1.791,4,4,4h35.964   C78.479,83.818,82.986,79.311,82.986,73.77z"/>
</g>
</svg>